<?xml version="1.0" standalone="no"?>
<!DOCTYPE svg PUBLIC "-//W3C//DTD SVG 20010904//EN"
 "http://www.w3.org/TR/2001/REC-SVG-20010904/DTD/svg10.dtd">
<svg version="1.0" xmlns="http://www.w3.org/2000/svg"
 width="494.000000pt" height="389.000000pt" viewBox="0 0 494.000000 389.000000"
 preserveAspectRatio="xMidYMid meet">

<g transform="translate(0.000000,389.000000) scale(0.100000,-0.100000)"
fill="#000000" stroke="none">
<path d="M2200 3063 c0 -6 5 -15 11 -19 7 -4 9 -22 6 -46 -4 -33 -3 -37 9 -27
19 16 17 39 -6 74 -11 17 -20 25 -20 18z"/>
<path d="M1967 3005 c5 -48 34 -82 82 -95 62 -17 55 2 -24 60 -29 22 -56 48
-58 57 -2 10 -3 0 0 -22z"/>
<path d="M2045 3009 c11 -6 31 -23 43 -38 20 -22 22 -22 13 -4 -12 24 -49 53
-66 53 -5 0 -1 -5 10 -11z"/>
<path d="M2183 2881 c-7 -11 -8 -23 -2 -32 23 -37 2 -95 -62 -164 -60 -65 -99
-182 -105 -311 -5 -113 0 -131 68 -247 45 -78 57 -85 228 -139 105 -33 148
-37 300 -26 30 3 37 -1 49 -27 8 -16 16 -24 19 -17 2 6 10 12 18 12 10 0 8 6
-7 21 -32 32 -20 49 51 75 76 27 123 72 140 134 6 22 24 61 39 85 26 41 28 52
29 149 0 105 0 106 -34 150 -40 52 -54 86 -54 127 0 49 -17 67 -101 109 -70
36 -94 42 -192 53 -102 11 -247 13 -322 5 -26 -3 -31 1 -40 29 -10 29 -12 30
-22 14z m235 -123 c-3 -20 -10 -24 -59 -28 -54 -5 -61 -9 -133 -76 -46 -42
-76 -78 -75 -90 0 -18 1 -17 9 2 4 12 22 32 40 45 17 13 51 41 75 62 40 35 47
38 97 35 42 -2 54 -7 56 -22 2 -10 -2 -22 -10 -27 -10 -6 -10 -9 0 -9 6 0 12
-6 12 -14 0 -8 -6 -16 -12 -19 -25 -9 -2 -13 37 -6 22 3 30 7 18 8 -46 3 -33
21 15 21 87 0 210 -61 232 -115 8 -19 9 -19 9 2 2 62 -141 140 -240 131 -49
-5 -50 -5 -47 21 4 33 40 39 123 17 33 -8 82 -18 108 -21 60 -8 111 -49 113
-91 1 -26 5 -29 32 -28 28 2 31 -2 47 -53 15 -48 16 -66 6 -147 -17 -134 -31
-164 -106 -230 -60 -53 -119 -86 -131 -73 -12 11 8 46 29 53 42 12 147 132
147 167 0 6 -12 -8 -26 -29 -36 -55 -74 -93 -108 -111 -25 -13 -30 -13 -44 1
-14 14 -14 16 4 22 87 28 93 34 137 144 l34 85 -13 83 c-10 62 -20 91 -39 113
-14 17 -25 34 -25 39 0 4 -6 10 -14 13 -9 4 -1 -17 18 -51 26 -44 35 -74 41
-129 7 -73 -3 -116 -49 -213 -15 -31 -72 -70 -102 -70 -36 0 -29 15 17 35 45
21 69 49 69 80 -1 17 -3 16 -16 -7 -8 -15 -23 -32 -33 -37 -18 -10 -18 -9 0
26 11 21 19 44 19 51 0 8 9 30 21 48 17 28 19 39 10 66 -5 18 -12 44 -15 58
-3 14 -3 -3 -1 -36 3 -46 1 -65 -10 -74 -8 -6 -21 -36 -29 -65 -16 -52 -29
-65 -67 -65 -33 0 -20 -20 14 -21 l32 0 -30 -14 c-16 -7 -41 -18 -55 -23 -24
-10 -24 -11 8 -11 43 -1 38 -21 -9 -38 l-34 -13 46 6 c28 4 49 2 53 -4 12 -20
-20 -26 -131 -26 -95 1 -117 4 -147 22 -20 12 -54 26 -76 32 -29 8 -40 16 -40
30 0 24 8 25 34 5 11 -8 24 -15 30 -15 6 0 -1 8 -14 17 -48 34 -60 48 -60 70
0 13 -7 50 -16 82 -16 57 -16 60 8 138 21 65 34 88 77 132 69 73 55 79 -17 8
-49 -49 -61 -68 -82 -133 -21 -69 -22 -80 -11 -127 7 -29 15 -69 18 -90 3 -20
9 -40 14 -43 11 -7 12 -44 1 -44 -4 0 -13 5 -19 11 -9 9 -11 7 -7 -8 4 -16 0
-22 -22 -27 -39 -10 -52 7 -74 103 -24 99 -24 119 -5 180 8 25 22 72 30 104
13 47 27 70 83 129 77 81 106 97 180 98 50 0 53 -2 50 -22z m186 -4 c100 -17
128 -29 170 -71 44 -43 58 -70 51 -93 -9 -27 -21 -25 -29 4 -12 49 -53 84
-114 97 -31 6 -79 18 -106 25 -27 8 -69 14 -93 14 -46 0 -46 0 -37 24 8 20 44
20 158 0z m-279 -639 c68 -33 74 -34 178 -32 59 2 107 0 107 -3 0 -3 -6 -14
-12 -23 -15 -20 -79 -23 -218 -11 -94 9 -134 24 -205 78 -20 14 -20 15 5 25
32 13 59 7 145 -34z"/>
<path d="M2302 2547 c-16 -19 -32 -95 -31 -147 l1 -45 12 60 c7 33 18 77 25
98 14 41 11 56 -7 34z"/>
<path d="M2372 2533 c2 -22 9 -29 30 -31 l27 -3 3 -117 3 -117 45 0 45 0 3
117 3 117 27 3 c21 2 28 9 30 31 l3 27 -111 0 -111 0 3 -27z"/>
<path d="M2235 2503 c-3 -10 -9 -48 -12 -84 -5 -62 -3 -71 26 -123 18 -31 42
-61 54 -68 21 -10 21 -10 6 8 -9 10 -29 43 -44 71 -25 49 -27 58 -20 133 7 78
4 98 -10 63z"/>
<path d="M2641 2500 c1 -8 5 -26 9 -40 l8 -25 1 25 c0 14 -4 32 -9 40 -9 13
-10 13 -9 0z"/>
<path d="M2315 2380 c4 -61 9 -78 26 -92 12 -10 25 -18 30 -18 16 0 9 19 -11
30 -12 7 -20 21 -20 38 0 15 -7 47 -15 72 l-14 45 4 -75z"/>
<path d="M2357 2443 c-11 -10 -8 -51 3 -58 5 -3 7 0 4 9 -3 8 -1 24 6 35 10
20 1 29 -13 14z"/>
<path d="M2620 2402 c0 -6 -11 -23 -25 -38 -32 -35 -32 -50 0 -27 25 18 43 58
31 70 -3 4 -6 1 -6 -5z"/>
<path d="M2823 1994 c-14 -14 -23 -27 -21 -30 3 -2 31 4 64 15 56 18 74 18 74
3 0 -4 -21 -15 -46 -26 -25 -10 -43 -21 -40 -24 7 -6 116 40 116 49 0 10 -77
39 -101 39 -11 0 -31 -12 -46 -26z"/>
<path d="M2737 1873 c18 -15 46 -39 63 -52 33 -25 58 -66 47 -77 -5 -6 -37 17
-124 91 -36 29 -36 29 -28 5 11 -38 54 -76 119 -104 l58 -26 -7 47 c-13 86
-44 119 -130 138 l-30 7 32 -29z"/>
<path d="M290 1426 c0 -19 6 -25 28 -28 l27 -3 3 -122 3 -123 44 0 44 0 3 123
3 122 28 3 c21 3 27 9 27 28 0 24 0 24 -105 24 -105 0 -105 0 -105 -24z"/>
<path d="M600 1300 l0 -150 45 0 45 0 0 61 c0 70 16 76 37 13 17 -51 46 -74
94 -74 38 0 39 1 39 35 0 28 -4 35 -20 35 -11 0 -27 12 -36 26 -17 25 -16 26
14 54 40 36 42 77 7 112 -30 30 -63 38 -156 38 l-69 0 0 -150z m156 76 c26
-20 8 -50 -35 -54 -28 -3 -31 -1 -31 26 0 16 3 32 7 35 11 11 38 8 59 -7z"/>
<path d="M950 1300 l0 -150 100 0 100 0 0 29 c0 29 -2 30 -52 33 -51 3 -53 4
-53 33 0 29 2 30 48 33 38 3 47 7 47 22 0 15 -9 19 -47 22 -42 3 -48 6 -51 27
-5 30 12 41 66 41 40 0 42 1 42 30 l0 30 -100 0 -100 0 0 -150z"/>
<path d="M1250 1300 l0 -150 100 0 100 0 0 29 c0 29 -2 30 -52 33 -51 3 -53 4
-53 33 0 29 2 30 48 33 38 3 47 7 47 22 0 15 -9 19 -47 22 -42 3 -48 6 -51 27
-5 30 12 41 66 41 40 0 42 1 42 30 l0 30 -100 0 -100 0 0 -150z"/>
<path d="M1680 1301 l0 -151 40 0 40 0 0 49 c0 53 0 53 71 65 64 11 104 71 81
121 -19 42 -57 58 -148 63 l-84 5 0 -152z m141 89 c22 -13 25 -52 5 -70 -8 -6
-25 -10 -38 -8 -18 2 -24 10 -26 37 -5 46 19 62 59 41z"/>
<path d="M2045 1438 c-9 -25 -75 -273 -75 -281 0 -4 19 -7 42 -5 39 3 43 6 48
33 5 27 10 30 44 33 42 4 56 -8 56 -45 0 -20 5 -23 45 -23 30 0 45 4 45 13 -1
6 -18 73 -39 147 l-39 135 -61 3 c-43 2 -63 -1 -66 -10z m84 -105 c15 -75 15
-73 -19 -73 -19 0 -30 5 -30 14 0 27 23 116 30 116 4 0 12 -26 19 -57z"/>
<path d="M2400 1428 c-145 -75 -80 -289 83 -275 57 5 70 15 62 48 -5 22 -11
24 -46 21 -80 -8 -120 78 -63 135 22 22 31 24 65 19 21 -3 39 -3 39 1 0 5 3
18 6 29 5 17 -1 24 -27 33 -46 16 -69 14 -119 -11z"/>
<path d="M2630 1426 c0 -19 6 -25 28 -28 l27 -3 3 -122 3 -123 44 0 44 0 3
123 3 122 28 3 c21 3 27 9 27 28 0 24 0 24 -105 24 -105 0 -105 0 -105 -24z"/>
<path d="M3068 1353 c-2 -54 -2 -122 0 -150 l3 -53 45 0 44 0 0 61 c0 51 3 60
17 57 9 -2 32 -29 50 -61 l34 -57 50 0 51 0 -33 58 c-17 31 -36 64 -42 72 -7
12 1 35 27 88 20 39 36 74 36 77 0 3 -20 5 -46 5 l-45 0 -30 -65 c-22 -47 -36
-65 -50 -65 -17 0 -19 8 -19 65 l0 65 -44 0 -45 0 -3 -97z"/>
<path d="M3440 1300 l0 -150 100 0 100 0 0 30 c0 29 -1 30 -51 30 l-50 0 3 33
c3 30 6 32 46 35 34 3 42 7 42 23 0 16 -7 19 -46 19 -45 0 -45 0 -42 33 3 31
5 32 51 35 45 3 47 5 47 33 l0 29 -100 0 -100 0 0 -150z"/>
<path d="M3747 1443 c-4 -3 -7 -71 -7 -150 l0 -143 35 0 35 0 0 75 c0 41 4 75
9 75 4 0 34 -34 66 -75 54 -71 59 -75 96 -75 l39 0 0 151 0 150 -31 -3 -32 -3
-1 -74 c0 -41 -5 -76 -11 -77 -5 -2 -35 33 -65 76 -51 74 -57 80 -91 80 -20 0
-39 -3 -42 -7z"/>
<path d="M4110 1443 c0 -4 18 -55 40 -113 22 -58 40 -122 40 -142 0 -38 0 -38
40 -38 40 0 40 0 40 39 0 23 18 81 45 145 25 60 45 110 45 113 0 2 -19 3 -42
1 l-42 -3 -18 -62 c-10 -35 -22 -63 -26 -63 -5 0 -17 28 -28 63 -19 60 -21 62
-57 65 -20 2 -37 0 -37 -5z"/>
<path d="M4437 1307 c-21 -78 -38 -145 -37 -149 0 -5 18 -8 40 -8 36 0 40 3
48 33 7 28 13 32 47 35 41 4 55 -8 55 -45 0 -20 5 -23 45 -23 25 0 45 3 45 8
0 4 -18 70 -40 147 -22 77 -40 141 -40 142 0 2 -28 3 -62 3 l-63 0 -38 -143z
m118 36 c3 -21 9 -48 12 -60 4 -20 1 -23 -26 -23 -35 0 -38 12 -20 85 13 52
24 51 34 -2z"/>
</g>
</svg>
